<svg width="18" height="18" viewBox="0 0 18 18" fill="none" xmlns="http://www.w3.org/2000/svg">
<path d="M3 0C1.35498 0 0 1.35498 0 3V15C0 16.645 1.35498 18 3 18H11.5C12.888 18 14.1235 17.0903 14.4688 15.749C14.5015 15.6218 14.5088 15.4894 14.4903 15.3593C14.4718 15.2293 14.4279 15.1042 14.3611 14.9911C14.2943 14.878 14.2058 14.7792 14.1008 14.7003C13.9958 14.6214 13.8762 14.564 13.749 14.5312C13.6218 14.4985 13.4894 14.4912 13.3593 14.5097C13.2293 14.5282 13.1042 14.5721 12.9911 14.6389C12.878 14.7057 12.7792 14.7942 12.7003 14.8992C12.6214 15.0042 12.564 15.1238 12.5312 15.251C12.4325 15.6347 11.976 16 11.5 16H3C2.43602 16 2 15.564 2 15V3C2 2.43602 2.43602 2 3 2H11.5C11.976 2 12.4325 2.36525 12.5312 2.74902C12.564 2.87624 12.6214 2.99577 12.7003 3.10079C12.7792 3.20581 12.878 3.29426 12.9911 3.3611C13.1042 3.42793 13.2293 3.47183 13.3593 3.49031C13.4894 3.50878 13.6218 3.50145 13.749 3.46875C13.8762 3.43605 13.9958 3.37861 14.1008 3.29971C14.2058 3.22081 14.2943 3.122 14.3611 3.00892C14.4279 2.89584 14.4718 2.77071 14.4903 2.64066C14.5088 2.51061 14.5015 2.37819 14.4688 2.25098C14.1235 0.909747 12.888 0 11.5 0H3ZM13.9893 4.99023C13.7904 4.99048 13.5961 5.05 13.4313 5.16119C13.2664 5.27238 13.1385 5.43018 13.0637 5.61446C12.989 5.79873 12.9709 6.00109 13.0117 6.19571C13.0525 6.39032 13.1505 6.56834 13.293 6.70703L14.5859 8H5.5C5.36749 7.99813 5.23593 8.02261 5.11296 8.07202C4.98999 8.12143 4.87807 8.1948 4.7837 8.28784C4.68933 8.38088 4.61439 8.49176 4.56324 8.61401C4.5121 8.73627 4.48576 8.86747 4.48576 9C4.48576 9.13253 4.5121 9.26373 4.56324 9.38599C4.61439 9.50824 4.68933 9.61912 4.7837 9.71216C4.87807 9.8052 4.98999 9.87857 5.11296 9.92798C5.23593 9.97739 5.36749 10.0019 5.5 10H14.5859L13.293 11.293C13.197 11.3851 13.1204 11.4955 13.0676 11.6176C13.0148 11.7397 12.9869 11.8712 12.9856 12.0042C12.9842 12.1373 13.0094 12.2692 13.0597 12.3924C13.11 12.5156 13.1844 12.6275 13.2784 12.7216C13.3725 12.8156 13.4844 12.89 13.6076 12.9403C13.7308 12.9906 13.8627 13.0158 13.9958 13.0144C14.1288 13.0131 14.2603 12.9852 14.3824 12.9324C14.5045 12.8796 14.6149 12.803 14.707 12.707L17.707 9.70703C17.8945 9.51949 17.9998 9.26517 17.9998 9C17.9998 8.73483 17.8945 8.48051 17.707 8.29297L14.707 5.29297C14.6137 5.19706 14.5021 5.12084 14.3788 5.06884C14.2555 5.01684 14.1231 4.99011 13.9893 4.99023Z" fill="white"/>
</svg>
