<svg width="14" height="16" viewBox="0 0 14 16" fill="none" xmlns="http://www.w3.org/2000/svg">
<path d="M12.8125 15.125H9.4375C8.91963 15.125 8.5 14.7054 8.5 14.1875V10.8125C8.5 10.3981 8.16437 10.0625 7.75 10.0625H6.25C5.83563 10.0625 5.5 10.3981 5.5 10.8125V14.1875C5.5 14.7054 5.08038 15.125 4.5625 15.125H1.1875C0.669625 15.125 0.25 14.7054 0.25 14.1875V7.02987C0.25 6.16775 0.64525 5.35325 1.32213 4.82L6.65162 0.620375C6.856 0.459875 7.144 0.459875 7.348 0.620375L12.6782 4.82C13.3551 5.35325 13.75 6.16737 13.75 7.02912V14.1875C13.75 14.7054 13.3304 15.125 12.8125 15.125Z" fill="#4144C1"/>
</svg>
