<svg width="17" height="18" viewBox="0 0 17 18" fill="none" xmlns="http://www.w3.org/2000/svg">
<path d="M8.30769 0C8.15625 0 8.00505 0.0490673 7.87951 0.147837L1.31971 5.31671C0.486635 5.97301 0 6.97528 0 8.03636V15.4615C0 16.8637 1.13631 18 2.53846 18H14.0769C15.4791 18 16.6154 16.8637 16.6154 15.4615V8.03546C16.6154 6.97484 16.1297 5.97301 15.2966 5.31671L8.73678 0.147837C8.61101 0.0490673 8.45914 0 8.30769 0ZM8.30769 6C8.68985 6 9 6.30969 9 6.69231V6.92308H12.2308C12.6129 6.92308 12.9231 7.23277 12.9231 7.61538C12.9231 7.99708 12.6142 8.30541 12.2335 8.30679L13.8101 12.0514C13.8341 12.1086 13.8462 12.1694 13.8462 12.2308V12.4615C13.8462 13.8106 12.6885 14.8895 11.3122 14.7584C10.1796 14.6504 9.34018 13.6836 9.2488 12.5616C9.2428 12.5316 9.23077 12.5033 9.23077 12.4715V12.4615V12.3624V12.2308C9.23077 12.1694 9.24283 12.1082 9.26683 12.0514L10.8434 8.30769H5.77193L7.34856 12.0514C7.37256 12.1082 7.38462 12.1694 7.38462 12.2308V12.4715C7.38462 12.4728 7.38371 12.4737 7.38371 12.4751C7.37541 13.8177 6.22145 14.889 4.84976 14.7584C3.71714 14.6504 2.87774 13.6827 2.78636 12.5607C2.78082 12.5312 2.76923 12.5033 2.76923 12.4715V12.4615V12.3624V12.2308C2.76923 12.1694 2.78129 12.1082 2.80529 12.0514L4.38191 8.30769C4.00114 8.30585 3.69231 7.99708 3.69231 7.61538C3.69231 7.23277 4.00246 6.92308 4.38462 6.92308H7.61538V6.69231C7.61538 6.30969 7.92554 6 8.30769 6ZM5.07692 9.03516L3.82933 12H6.32452L5.07692 9.03516ZM11.5385 9.03516L10.2909 12H12.7861L11.5385 9.03516Z" fill="white"/>
</svg>
