<svg width="17" height="18" viewBox="0 0 17 18" fill="none" xmlns="http://www.w3.org/2000/svg">
<path d="M1.92857 0C0.865286 0 0 0.865286 0 1.92857V15.2143C0 16.2776 0.865286 17.1429 1.92857 17.1429H7.55692C6.59435 16.1417 6 14.784 6 13.2857C6 10.2086 8.49429 7.71429 11.5714 7.71429C12.3309 7.71429 13.0543 7.86729 13.7143 8.14286V6.85714H8.78572C7.72243 6.85714 6.85714 5.99186 6.85714 4.92857V0H1.92857ZM8.14286 0.376674V4.92857C8.14286 5.283 8.43129 5.57143 8.78572 5.57143H13.3376L8.14286 0.376674ZM11.5714 8.57143C8.97541 8.57143 6.85714 10.6897 6.85714 13.2857C6.85714 15.8817 8.97541 18 11.5714 18C14.1674 18 16.2857 15.8817 16.2857 13.2857C16.2857 10.6897 14.1674 8.57143 11.5714 8.57143ZM11.5714 9.85714C13.4726 9.85714 15 11.3846 15 13.2857H11.5714V9.85714Z" fill="white"/>
</svg>
