<svg width="18" height="18" viewBox="0 0 18 18" fill="none" xmlns="http://www.w3.org/2000/svg">
<path d="M12.326 8.325H18C17.7972 5.5755 16.346 3.1635 14.2188 1.656L11.9654 5.4045C11.695 5.031 11.3435 4.716 10.9424 4.4865L13.0606 0.9585C11.8438 0.3465 10.4692 0 9.01352 0C4.04256 0 0 4.0365 0 9C0 13.9635 4.04256 18 9.01352 18C10.4692 18 11.8438 17.6535 13.0606 17.0415L11.019 13.6395C11.4382 13.4505 11.8122 13.1805 12.1232 12.852L14.2188 16.344C16.346 14.8365 17.7972 12.4245 18 9.675H12.975C12.8623 9.1755 12.637 8.7165 12.326 8.325ZM9.68953 12.609V12.825C9.68953 13.1985 9.38758 13.5 9.01352 13.5C8.63946 13.5 8.33751 13.1985 8.33751 12.825V12.5775C7.63896 12.4335 7.07111 11.9295 6.85028 11.232C6.73761 10.8765 6.9359 10.4985 7.29194 10.386C7.64797 10.2735 8.03105 10.4715 8.13921 10.827C8.22484 11.0925 8.4682 11.2725 8.74762 11.2725L9.57687 11.2635C10.0095 11.259 10.3655 10.9035 10.3655 10.4715C10.3655 10.0305 10.0095 9.675 9.56785 9.675H8.90987C7.72459 9.675 6.76014 8.712 6.76014 7.5285C6.76014 6.5475 7.43165 5.715 8.33751 5.4675V5.175C8.33751 4.8015 8.63946 4.5 9.01352 4.5C9.38758 4.5 9.68953 4.8015 9.68953 5.175V5.427C10.3881 5.5755 10.9559 6.084 11.1678 6.7815C11.2759 7.137 11.0776 7.515 10.7171 7.6275C10.3655 7.7355 9.98247 7.533 9.87431 7.1775C9.79319 6.9075 9.54982 6.7275 9.2659 6.7275L8.89634 6.7365C8.4637 6.741 8.11217 7.0965 8.11217 7.5285C8.11217 7.9695 8.4682 8.325 8.90987 8.325H9.56785C10.7531 8.325 11.7176 9.288 11.7176 10.4715C11.7176 11.6055 10.8207 12.546 9.68953 12.609Z" fill="white"/>
</svg>
