<svg width="18" height="18" viewBox="0 0 18 18" fill="none" xmlns="http://www.w3.org/2000/svg">
<path d="M15.3834 10.0267C15.0625 9.79133 14.8708 9.41332 14.8708 9.01506C14.8708 8.61679 15.0625 8.23878 15.383 8.00388L16.8653 6.9171C17.1016 6.74339 17.1992 6.43783 17.107 6.15928C16.7253 5.01265 16.1219 3.96682 15.3128 3.05014C15.1179 2.83054 14.8038 2.76123 14.5351 2.87914L12.866 3.61311C12.5024 3.77331 12.079 3.75036 11.7338 3.55101C11.3891 3.3521 11.1578 2.99749 11.1141 2.60193L10.9134 0.769479C10.8815 0.477871 10.6646 0.240265 10.3775 0.181313C9.20879 -0.0576435 7.9807 -0.0616935 6.79132 0.176813C6.50241 0.234865 6.28506 0.472471 6.25311 0.765429L6.0542 2.58618C6.01055 2.98219 5.77924 3.3368 5.43363 3.5357C5.08892 3.73461 4.66681 3.75846 4.30185 3.59781L2.62376 2.85979C2.35735 2.74188 2.04234 2.81029 1.84748 3.02944C1.03566 3.94252 0.429496 4.98699 0.0438351 6.13273C-0.0497675 6.41083 0.0474351 6.71819 0.284592 6.89235L1.75748 7.97238C2.07879 8.20818 2.2705 8.58619 2.2705 8.98445C2.2705 9.38272 2.07879 9.76073 1.75838 9.99563L0.276041 11.0824C0.0397849 11.2561 -0.0578677 11.5617 0.0343849 11.8402C0.415995 12.9869 1.01946 14.0327 1.82858 14.9494C2.02344 15.1694 2.33845 15.2392 2.60621 15.1204L4.2753 14.3864C4.63891 14.2262 5.06192 14.2491 5.40753 14.4485C5.75224 14.6474 5.98355 15.002 6.0272 15.3976L6.2279 17.23C6.25986 17.5216 6.47676 17.7592 6.76387 17.8182C7.35519 17.9388 7.9627 18 8.57067 18C9.16378 18 9.7623 17.9401 10.3496 17.8222C10.6385 17.7642 10.8558 17.5266 10.8878 17.2336L11.0871 15.4129C11.1308 15.0169 11.3621 14.6623 11.7077 14.4634C12.0524 14.2649 12.475 14.2415 12.8395 14.4013L14.5176 15.1393C14.7849 15.2576 15.099 15.1892 15.2939 14.9696C16.1057 14.0565 16.7118 13.0121 17.0975 11.8663C17.1911 11.5882 17.0939 11.2809 16.8567 11.1067L15.3834 10.0267ZM8.57067 12.1498C6.83092 12.1498 5.42058 10.7395 5.42058 8.99975C5.42058 7.26001 6.83092 5.84967 8.57067 5.84967C10.3104 5.84967 11.7208 7.26001 11.7208 8.99975C11.7208 10.7395 10.3104 12.1498 8.57067 12.1498Z" fill="white"/>
</svg>
