<svg width="18" height="18" viewBox="0 0 18 18" fill="none" xmlns="http://www.w3.org/2000/svg">
<path d="M6.0001 0C3.71841 0 1.8621 1.83518 1.8621 4.09091C1.8621 6.34664 3.71841 8.18182 6.0001 8.18182C8.28179 8.18182 10.1381 6.34664 10.1381 4.09091C10.1381 1.83518 8.28179 0 6.0001 0ZM1.54043 9.81818C0.690903 9.81818 0 10.5482 0 11.4458V12.0682C0 13.4104 0.701552 14.5769 1.97606 15.3521C3.04821 16.0046 4.47731 16.3636 6.0001 16.3636C7.2957 16.3636 8.63367 16.0904 9.71783 15.5263C9.2043 14.8447 8.8967 14.004 8.8967 13.0909C8.8967 11.7577 9.54807 10.5752 10.5495 9.82777C10.5193 9.82613 10.4908 9.81818 10.4598 9.81818H1.54043ZM13.0347 9.81818C11.2094 9.81818 9.72429 11.2864 9.72429 13.0909C9.72429 14.8954 11.2094 16.3636 13.0347 16.3636C13.7237 16.3636 14.3631 16.1539 14.8936 15.7963L16.9407 17.8202C17.062 17.9405 17.2207 18 17.3796 18C17.5385 18 17.6972 17.9401 17.8184 17.8202C18.0605 17.5805 18.0605 17.1922 17.8184 16.9525L15.7721 14.9286C16.1333 14.4042 16.3451 13.772 16.3451 13.0909C16.3451 11.2864 14.86 9.81818 13.0347 9.81818ZM13.0347 11.0455C14.1755 11.0455 15.1037 11.963 15.1037 13.0909C15.1037 14.2188 14.1755 15.1364 13.0347 15.1364C11.8938 15.1364 10.9657 14.2188 10.9657 13.0909C10.9657 11.963 11.8938 11.0455 13.0347 11.0455Z" fill="white"/>
</svg>
