<svg width="15" height="18" viewBox="0 0 15 18" fill="none" xmlns="http://www.w3.org/2000/svg">
<path d="M5.76923 0C4.87846 0 4.15385 0.724615 4.15385 1.61538C4.15385 2.50615 4.87846 3.23077 5.76923 3.23077H9C9.89077 3.23077 10.6154 2.50615 10.6154 1.61538C10.6154 0.724615 9.89077 0 9 0H5.76923ZM2.07692 1.38462C0.931846 1.38462 0 2.31646 0 3.46154V15.9231C0 17.0682 0.931846 18 2.07692 18H12.6923C13.8374 18 14.7692 17.0682 14.7692 15.9231V3.46154C14.7692 2.31646 13.8374 1.38462 12.6923 1.38462H11.5267C11.5337 1.46077 11.5385 1.53738 11.5385 1.61538C11.5385 3.01477 10.3994 4.15385 9 4.15385H5.76923C4.36985 4.15385 3.23077 3.01477 3.23077 1.61538C3.23077 1.53738 3.23556 1.46077 3.24249 1.38462H2.07692ZM7.38462 5.53846C7.76677 5.53846 8.07692 5.84862 8.07692 6.23077V6.92308H8.76923C9.15138 6.92308 9.46154 7.23323 9.46154 7.61538C9.46154 7.99754 9.15138 8.30769 8.76923 8.30769H8.07692V9C8.07692 9.38215 7.76677 9.69231 7.38462 9.69231C7.00246 9.69231 6.69231 9.38215 6.69231 9V8.30769H6C5.61785 8.30769 5.30769 7.99754 5.30769 7.61538C5.30769 7.23323 5.61785 6.92308 6 6.92308H6.69231V6.23077C6.69231 5.84862 7.00246 5.53846 7.38462 5.53846ZM4.38462 10.6154H10.3846C10.7668 10.6154 11.0769 10.9255 11.0769 11.3077C11.0769 11.6898 10.7668 12 10.3846 12H4.38462C4.00246 12 3.69231 11.6898 3.69231 11.3077C3.69231 10.9255 4.00246 10.6154 4.38462 10.6154ZM4.38462 12.9231H10.3846C10.7668 12.9231 11.0769 13.2332 11.0769 13.6154C11.0769 13.9975 10.7668 14.3077 10.3846 14.3077H4.38462C4.00246 14.3077 3.69231 13.9975 3.69231 13.6154C3.69231 13.2332 4.00246 12.9231 4.38462 12.9231Z" fill="white"/>
</svg>
